Coordinates
version=1
nRows=22
nColumns=24
inDegrees=yes

Units are S.I. units (second, meters, Newtons, ...)
Angles are in degrees.

endheader
time	pelvis_tilt	pelvis_list	pelvis_rotation	pelvis_tx	pelvis_ty	pelvis_tz	hip_flexion_r	hip_adduction_r	hip_rotation_r	knee_angle_r	ankle_angle_r	subtalar_angle_r	mtp_angle_r	hip_flexion_l	hip_adduction_l	hip_rotation_l	knee_angle_l	ankle_angle_l	subtalar_angle_l	mtp_angle_l	lumbar_extension	lumbar_bending	lumbar_rotation
      3.79000000	      8.72725504	     -5.05035703	    -11.94062615	     -0.32962393	      0.72318636	     -0.12180047	    -26.04514257	      4.41100107	     19.28911820	    -10.51197113	     25.24794645	     -6.57062760	      0.00000000	     11.19679729	     -6.07636532	    -12.53472103	      4.03090916	     -0.42537762	    -12.72475326	      0.00000000	    -24.09473003	     -3.11709849	      9.64245127
      3.80000000	      8.81529402	     -4.61536209	    -12.43389347	     -0.31550119	      0.72251342	     -0.12312998	    -26.64460249	      3.39525385	     18.94955245	    -11.43504195	     24.74220795	     -5.77142332	      0.00000000	     10.78978605	     -5.42309047	    -11.79908961	      3.59347736	     -2.29849044	    -15.13830352	      0.00000000	    -23.75872471	     -3.49773539	     10.10840583
      3.81000000	      9.00250673	     -3.95046057	    -12.85964601	     -0.30113814	      0.72240633	     -0.12465665	    -27.19473103	      2.16607173	     18.39179962	    -12.50948107	     23.96347125	     -4.96731463	      0.00000000	     10.36684996	     -4.48668776	    -10.85191266	      2.73355560	     -4.32810569	    -17.84719906	      0.00000000	    -23.43675508	     -4.09897640	     10.46113683
      3.82000000	      9.20311665	     -3.03532446	    -13.14116514	     -0.28660608	      0.72277089	     -0.12643566	    -27.52367306	      0.80040939	     17.58768238	    -13.88424337	     22.94532058	     -4.19658087	      0.00000000	     10.14150069	     -3.25463137	     -9.80930785	      1.37462999	     -6.30669369	    -20.61295239	      0.00000000	    -23.04571071	     -4.89917930	     10.51056119
      3.83000000	      9.50012036	     -1.91127853	    -13.28997379	     -0.27192299	      0.72370894	     -0.12839050	    -27.71442339	     -0.68154700	     16.51164361	    -15.56891302	     21.52786392	     -3.49616343	      0.00000000	     10.00807258	     -1.75110164	     -8.95000786	     -0.39914291	     -7.70885760	    -22.66689356	      0.00000000	    -22.69037460	     -5.90200345	     10.40507042
      3.84000000	      9.79194819	     -0.67032815	    -13.30301994	     -0.25715418	      0.72509727	     -0.13041244	    -27.72747967	     -2.10717119	     15.64566170	    -17.50498913	     19.40674840	     -3.52201171	      0.00000000	     10.13612049	     -0.12887848	     -8.75860957	     -2.65892163	     -7.90392343	    -23.21944193	      0.00000000	    -22.28490041	     -7.00360225	     10.14529273
      3.85000000	     10.14316173	      0.61798628	    -13.20365652	     -0.24241010	      0.72679506	     -0.13257673	    -27.32967162	     -3.52333298	     14.07643328	    -20.15756004	     17.37020811	     -2.69700688	      0.00000000	     10.16350260	      1.59626522	     -8.27596062	     -4.89398341	     -7.88674864	    -24.02969632	      0.00000000	    -21.96390931	     -8.13594878	      9.77351047
      3.86000000	     10.43590740	      1.76568482	    -13.03523552	     -0.22772316	      0.72873925	     -0.13466340	    -26.67888477	     -4.64507140	     13.01499466	    -23.11278486	     14.32791476	     -2.75844226	      0.00000000	     10.10726540	      3.17295582	     -7.97966165	     -6.95380467	     -7.30491336	    -24.31790102	      0.00000000	    -21.62164649	     -9.10803582	      9.34974065
      3.87000000	     10.59737228	      2.77945713	    -12.89429622	     -0.21324774	      0.73069139	     -0.13664663	    -25.44804502	     -5.60521914	     11.91071228	    -26.66780601	     11.00379811	     -2.50914439	      0.00000000	     10.09790408	      4.53382245	     -8.36175982	     -8.89608409	     -5.77013798	    -23.40634849	      0.00000000	    -21.19061006	     -9.93760821	      9.07196424
      3.88000000	     10.74273620	      3.62091781	    -12.82745357	     -0.19899513	      0.73268519	     -0.13848535	    -23.92042975	     -6.34377924	     11.32187669	    -30.53279474	      7.01195022	     -2.84790812	      0.00000000	      9.69401312	      5.76287705	     -8.47252101	    -10.16343376	     -4.45943676	    -23.19064566	      0.00000000	    -20.81275446	    -10.60988190	      8.81580673
      3.89000000	     10.86295826	      4.29530657	    -12.84864406	     -0.18511158	      0.73464324	     -0.14018978	    -21.99660229	     -6.92902762	     10.92266854	    -34.76297605	      2.69340230	     -3.21915798	      0.00000000	      8.97878636	      6.83470896	     -8.67930270	    -10.84205788	     -3.11925773	    -22.81019611	      0.00000000	    -20.51033131	    -11.13567145	      8.68382695
      3.90000000	     10.95358059	      4.85848162	    -12.98384085	     -0.17163702	      0.73645557	     -0.14174255	    -19.70598239	     -7.40994580	     10.77661916	    -39.25137862	     -1.71451849	     -3.62640316	      0.00000000	      8.02073859	      7.80947648	     -8.95820481	    -11.00566791	     -1.85893645	    -22.55044735	      0.00000000	    -20.27645117	    -11.57890257	      8.58939969
      3.91000000	     11.03700790	      5.32004735	    -13.19452123	     -0.15858109	      0.73813808	     -0.14312896	    -17.16217375	     -7.75726277	     10.86788771	    -43.82656618	     -6.03806188	     -4.18316202	      0.00000000	      6.85668707	      8.68159758	     -9.47399415	    -10.74989763	     -0.43511348	    -21.87529179	      0.00000000	    -20.14690795	    -11.94613161	      8.43856593
      3.92000000	     11.00352513	      5.71909430	    -13.47657965	     -0.14598207	      0.73952257	     -0.14437624	    -14.25490226	     -7.98070942	     11.14382782	    -48.44388385	     -9.87494431	     -4.72018753	      0.00000000	      5.64306170	      9.51080196	     -9.71837338	    -10.12957782	      0.43556233	    -21.81087716	      0.00000000	    -19.98974150	    -12.25836152	      8.33318348
      3.93000000	     10.96472924	      6.05459545	    -13.71422171	     -0.13376789	      0.74076246	     -0.14550788	    -11.27522943	     -8.03430974	     11.49584323	    -52.85666720	    -13.14083075	     -5.55790095	      0.00000000	      4.38461674	     10.27275756	     -9.96103212	     -9.38844842	      1.31050620	    -21.61154902	      0.00000000	    -19.95584736	    -12.51439057	      8.06364778
      3.94000000	     10.90506373	      6.33974179	    -13.86180044	     -0.12192460	      0.74186515	     -0.14653859	     -8.26934412	     -7.91074826	     11.85215453	    -56.98105227	    -15.59855560	     -6.64747280	      0.00000000	      3.18373246	     10.96036775	    -10.10711179	     -8.70050971	      2.18230600	    -21.27939655	      0.00000000	    -20.02542509	    -12.72460203	      7.64864134
      3.95000000	     10.87455260	      6.63310944	    -13.85818954	     -0.11034471	      0.74288277	     -0.14752279	     -5.36408472	     -7.71169301	     12.06845576	    -60.71522410	    -16.99259629	     -7.97903739	      0.00000000	      1.99158219	     11.64615389	    -10.02398014	     -8.07412367	      2.98118569	    -20.97601021	      0.00000000	    -20.23815832	    -12.94819664	      6.96061079
      3.96000000	     10.78278148	      6.74519405	    -13.68079712	     -0.09902031	      0.74389523	     -0.14843868	     -2.56103484	     -7.19889767	     12.17411608	    -63.95804335	    -17.66281107	     -9.67136430	      0.00000000	      1.02277761	     12.03112139	    -10.30482877	     -7.82144169	      4.27411073	    -19.79699584	      0.00000000	    -20.50476578	    -12.94211760	      6.18321520
      3.97000000	     10.72569106	      6.88991352	    -13.29760608	     -0.08783232	      0.74485320	     -0.14945452	      0.07902239	     -6.72553848	     12.00935131	    -66.73509978	    -17.22719913	    -11.31724881	      0.00000000	     -0.01988703	     12.47871103	     -9.80055536	     -7.52483285	      5.03422278	    -19.56114410	      0.00000000	    -20.88531102	    -12.94028696	      5.13426945
      3.98000000	     10.64927423	      6.90139777	    -12.73852552	     -0.07675162	      0.74582421	     -0.15050021	      2.53810124	     -6.08534204	     11.66815047	    -68.96908310	    -16.00475345	    -13.13011006	      0.00000000	     -1.01010229	     12.73324155	     -9.19742291	     -7.37732938	      5.82965936	    -19.25610938	      0.00000000	    -21.30810695	    -12.74937217	      3.99628424
      3.99000000	     10.57789464	      6.81722507	    -12.03798114	     -0.06574546	      0.74680778	     -0.15160954	      4.82476640	     -5.37464446	     11.15382454	    -70.67944162	    -14.15822690	    -14.85804522	      0.00000000	     -1.99181378	     12.85024434	     -8.50321944	     -7.31887674	      6.63050123	    -18.91146048	      0.00000000	    -21.77110640	    -12.41597808	      2.79831104
      4.00000000	     10.50044922	      6.64971031	    -11.21389728	     -0.05479702	      0.74777076	     -0.15281798	      6.97022502	     -4.63018703	     10.48812362	    -71.88184671	    -11.85152558	    -16.32475284	      0.00000000	     -2.97078473	     12.84798777	     -7.69190431	     -7.30449348	      7.45634383	    -18.55585439	      0.00000000	    -22.24347985	    -11.94787721	      1.56385304
